<svg width="365" height="342" viewBox="0 0 365 342" fill="none" xmlns="http://www.w3.org/2000/svg">
<path d="M358.963 146.708C364.884 140.317 367.788 124.825 361.184 126.281C355.424 126.94 356.663 140.904 356.759 137.632C356.783 136.812 358.561 131.948 360.226 131.176C361.071 130.381 362.688 131.249 363.46 132.905C364.136 137.833 359.897 142.632 358.963 146.708Z" fill="#E2BE7F"/>
<path d="M359.374 162.907C359.526 160.086 359.478 157.786 359.221 156.002C358.971 154.04 358.497 152.955 357.982 152.746C356.397 152.48 355.504 152.786 355.094 153.646C354.515 154.498 354.088 155.889 353.63 157.811C353.187 159.555 352.527 161.822 351.498 164.419C350.645 167.024 349.068 169.942 346.784 173.005C344.853 175.907 342.624 177.901 340.251 179.187C337.878 180.473 335.344 181.398 332.826 182.145C330.308 182.893 327.621 183.448 324.749 184.179C321.885 184.734 318.997 185.811 315.908 187.234C308.957 191.455 302.803 197.139 297.276 204.261C291.757 211.384 286.569 218.893 281.87 227.117C277.18 235.172 272.667 243.244 268.677 251.516C264.51 259.595 260.391 266.976 256.328 273.302C252.435 279.806 248.26 284.887 243.988 288.553C239.724 292.211 235.211 293.738 230.304 292.934C224.351 291.72 220.256 288.842 218.027 284.3C215.976 279.597 215.381 274.428 215.888 268.439C216.386 262.457 217.778 256.516 220.24 250.278C222.516 244.216 225.107 239.047 227.979 234.955C230.111 231.538 230.947 229.279 230.642 228.379C230.175 227.294 229.073 227.937 227.359 230.148C222.396 236.772 218.285 243.975 214.842 251.926C211.584 259.708 209.782 266.686 209.46 272.683C209.267 276.213 209.42 279.927 210.087 283.858C210.586 287.781 211.624 291.375 213.032 294.807C214.431 298.248 216.386 301.359 218.735 303.787C221.261 306.231 224.174 307.976 227.85 308.707C234.664 310.323 240.931 309.069 246.61 305.484C252.475 301.737 257.72 296.536 262.684 289.912C267.639 283.287 272.482 275.762 276.826 267.514C281.179 259.089 285.507 251.186 289.634 243.63C293.769 235.888 297.855 229.215 301.886 223.427C305.924 217.631 310.204 213.796 314.532 212.268C317.485 210.13 320.22 208.691 323.092 207.959C325.795 207.051 328.321 206.295 331.016 205.564C333.703 205.001 336.221 204.253 338.755 203.152C341.458 202.243 344.024 200.612 346.8 198.465C348.835 196.809 350.725 194.614 352.294 191.688C353.871 188.77 355.11 185.65 356.172 182.354C357.065 179.042 357.95 175.722 358.497 172.217C359.044 168.905 359.39 165.737 359.374 162.907Z" fill="#E2BE7F"/>
<path d="M340.999 71.9995C340.541 71.6538 340.074 71.6297 339.407 72.2246C336.132 74.564 332.858 76.9035 329.721 79.4117C326.752 81.928 323.462 84.4202 320.164 87.0731C317.034 89.5733 313.43 92.2102 309.665 94.6863C305.908 97.1544 301.532 99.4295 296.834 101.697C293.777 102.943 290.543 104.341 287.172 105.579C283.64 106.801 280.27 107.879 277.068 108.964C273.713 109.88 270.656 110.974 267.937 111.77C265.049 112.71 262.804 113.53 261.179 114.238C257.471 115.926 254.382 117.646 252.065 119.721C249.587 121.787 247.737 123.901 246.377 125.871C244.841 127.993 243.948 129.987 243.216 131.836C242.628 133.845 242.226 135.558 241.985 136.965C241.679 139.778 242.001 142.472 243.119 145.052C244.092 147.464 245.709 149.45 247.68 150.969C249.812 152.344 252.121 153.26 254.953 153.413C257.777 153.566 260.809 152.786 263.754 150.897C267.318 149.048 270.005 146.041 271.622 142.351C273.247 138.661 274.091 134.617 274.308 130.533C274.349 129.754 274.22 129.271 273.93 128.781C273.641 128.29 273.005 128.419 272.024 129.151C271.332 130.212 270.141 131.884 268.597 134.151C266.899 136.418 265.065 138.211 263.279 139.216C261.815 140.076 260.222 140.462 258.476 140.687C256.723 141.065 254.993 140.968 253.432 140.727C251.872 140.333 250.649 139.795 249.587 139.103C248.533 138.259 247.97 136.965 248.05 135.558C248.179 133.202 249.233 131.217 251.373 129.44C253.36 127.655 255.331 126.192 257.133 125.026C259.249 123.724 262.153 122.47 265.837 121.256C269.369 120.034 273.375 118.836 277.711 117.341C282.031 116.006 286.52 114.672 291.17 113.193C295.82 111.713 300.172 109.905 304.219 107.919C301.596 112.662 299.271 117.727 296.93 123.105C294.597 128.331 292.409 133.717 290.245 138.79C288.073 144.023 285.748 149.088 283.592 154.008C281.444 158.775 279.159 163.052 276.601 166.694C274.196 170.336 271.67 173.35 268.878 175.4C266.079 177.611 263.191 178.552 260.053 178.383V178.407C258.686 178.295 257.543 177.885 256.715 177.097C255.661 176.253 254.776 175.103 254.06 173.801C253.352 172.345 252.797 170.898 252.258 169.299C251.872 167.707 251.325 166.26 250.617 164.805C249.748 163.342 248.871 162.192 247.664 161.179C246.458 160.174 244.905 159.764 242.87 159.66C239.885 159.499 237.279 161.091 234.881 164.58C232.331 168.061 229.877 172.49 227.367 178.182C224.841 184.026 221.969 190.482 219.057 197.717C216.129 205.113 212.573 212.63 208.374 220.275C204.327 228.082 199.348 235.526 193.748 242.938C188.157 250.19 181.496 256.75 173.781 262.465C166.066 268.181 157 272.724 146.88 276.269C136.615 279.645 124.716 281.197 111.499 280.948C103.462 280.98 95.9887 279.316 89.0782 276.1C82.0069 272.884 76.1021 268.624 71.0419 263.157C69.0549 260.938 67.2609 258.534 65.66 255.978C65.2497 256.396 64.8394 256.798 64.4372 257.232C61.5169 260.319 58.5726 263.824 55.4512 267.771C57.1165 271.027 59.007 274.138 61.1469 277.097C66.553 284.79 73.4473 291.15 81.846 296.013C90.0919 300.869 99.5525 303.434 110.252 303.699C124.877 304.181 138.232 301.922 149.832 297.042C161.602 292.179 172.197 285.514 181.48 277.049C190.764 268.583 199.01 258.8 206.097 247.384C213.168 236.121 219.331 224.175 224.89 211.891C225.815 209.27 227.086 206.183 228.389 202.477C229.708 198.61 231.317 195.08 232.926 191.551C234.382 188.006 236.112 185.112 237.986 182.539C239.853 180.127 241.808 178.97 243.843 179.082C245.412 179.171 246.61 180.336 247.117 182.563C247.785 184.798 248.597 187.21 249.394 189.927C250.343 192.653 251.469 195.233 253.078 197.524C254.341 199.518 256.256 200.829 258.798 201.343L258.79 201.456C258.943 201.448 259.096 201.423 259.249 201.415C259.482 201.456 259.699 201.496 259.941 201.52L259.949 201.351C264.993 200.853 269.425 199.124 273.094 196.254C277.036 193.32 280.567 189.26 283.343 184.533C286.287 179.653 288.789 174.283 290.857 168.101C293.077 162.079 295.305 155.905 297.542 149.578C299.778 143.243 302.159 137.077 304.701 130.927C307.405 124.777 310.534 119.278 314.436 114.294C315.457 112.935 316.801 111.432 318.466 109.639C320.139 107.839 321.966 106.046 323.969 104.116C325.956 102.332 327.951 100.402 330.091 98.6255C332.239 96.8569 334.218 95.233 336.189 93.7698C336.358 93.6171 336.848 93.1749 337.677 92.5881C338.329 92.1539 338.851 91.2294 339.069 90.1441C339.382 87.3304 339.68 84.8302 339.962 82.4827L341.168 74.8374C341.394 73.4305 341.289 72.4819 340.999 71.9995Z" fill="#E2BE7F"/>
<path d="M57.8164 227.125C57.4222 223.17 57.4463 219.078 57.9129 214.849C60.8251 170.167 106.471 151.669 139.092 131.144C100.494 140.848 62.2812 167.618 49.7716 206.102C48.9671 209.318 48.3477 212.678 47.9213 216.192C46.6422 225.766 47.1168 235.285 49.1924 244.474C52.1207 241.009 55.3707 237.488 58.9507 233.894C58.4358 231.691 58.0416 229.432 57.8164 227.125Z" fill="#E2BE7F"/>
<path d="M65.7887 253.373C69.0468 250.037 72.2889 247.143 75.5068 244.514C78.966 241.716 82.4091 239.224 85.8362 237.206C89.2552 235.188 92.5053 233.323 95.9002 231.619C98.3377 230.341 101.395 229.087 104.918 228.017C108.45 226.795 111.982 225.573 115.368 224.183C118.747 222.792 121.997 221.079 125.078 219.367C128.015 217.478 130.356 215.09 132.077 212.349C134.169 208.683 135.81 204.527 136.856 199.703C137.902 195.04 138.481 190.193 138.755 185.168C138.803 184.228 138.513 183.898 137.725 183.85C136.944 183.809 135.818 184.219 134.523 184.774C133.22 185.49 131.764 186.358 129.962 187.516C128.329 188.529 126.535 189.694 124.58 190.844C122.609 192.307 120.332 193.601 117.75 194.719C115.175 195.683 112.81 195.86 110.485 195.113C109.866 194.92 109.085 194.719 108.474 194.373C108.016 194.108 107.525 193.939 106.994 193.786C107.364 191.165 108.418 188.802 110.163 186.591C112.038 184.01 114.54 181.478 117.661 179.131C120.622 176.775 123.904 174.436 127.339 172.104C130.774 169.773 134.064 167.273 137.186 164.773C140.154 162.256 142.978 159.579 145.198 156.556C147.403 153.686 149.004 150.31 149.663 146.877C152.069 154.723 154.313 162.714 156.397 170.697C158.319 178.672 161.336 186.864 165.294 195.113C166.847 198.344 168.432 201.11 170.362 203.256C172.132 205.395 174.079 207.236 176.219 208.458C178.19 209.824 180.346 210.733 182.518 211.32C183.861 211.682 185.149 211.971 186.46 212.18L186.452 212.317C186.613 212.301 186.766 212.268 186.918 212.244C187.578 212.333 188.238 212.413 188.913 212.445L188.946 211.923C193.789 210.95 198.117 208.675 201.825 204.969C206.153 200.644 209.597 195.322 212.292 189.324C214.834 183.166 216.612 176.494 217.617 169.62C218.47 162.586 218.51 156.13 217.569 150.262C216.628 144.385 214.842 139.561 212.219 135.799C209.757 131.892 206.226 130.115 201.793 130.509C200.997 130.622 200.297 132.005 199.669 134.802C199.042 137.6 198.406 140.719 197.899 144.152C197.393 147.593 196.91 150.712 196.588 153.686C196.274 156.5 196.025 158.213 196.009 158.534C195.792 159.627 196.089 159.796 196.757 159.209C197.425 158.614 198.117 157.392 198.68 155.688C203.145 157.505 206.178 159.724 207.931 162.176C209.54 164.467 210.345 167.024 210.216 169.379C209.926 171.887 209.001 174.347 207.288 176.928C205.582 179.356 203.571 181.446 201.262 183.367C198.953 185.289 196.508 186.728 194.086 187.861C191.802 188.713 189.919 189.188 188.318 189.22C184.344 188.786 181.231 187.692 178.866 185.924C176.146 183.729 173.958 180.61 172.454 176.446C170.676 171.622 168.649 165.375 166.38 157.851C164.272 150.181 161.875 142.335 159.309 134.489C156.099 124.078 152.688 114.455 149.076 105.596C145.464 96.7363 142.109 88.9945 139.165 82.2255C138.143 80.7543 137.226 80.2317 136.422 80.5051C135.456 80.7623 134.764 81.9923 134.161 84.3157C133.871 86.8159 133.421 89.3161 133.292 91.6636C133.011 94.011 132.721 96.3505 132.423 99.0195C135.062 105.451 137.266 111.239 139.173 116.698C141.087 121.996 142.994 127.607 145.029 133.54C144.225 136.651 142.664 139.393 140.162 141.933C137.821 144.481 135.006 146.998 131.876 149.514C128.747 152.014 125.457 154.675 121.997 157.32C118.546 159.965 115.224 163.092 112.191 166.702C109.013 170.151 106.423 174.259 104.291 178.705C102.328 183.126 100.944 188.504 100.59 194.558C100.59 194.566 100.59 194.574 100.59 194.574C100.59 194.622 100.582 194.662 100.582 194.711H100.606C100.816 196.576 101.009 198.73 101.33 201.206C101.66 203.9 102.135 206.601 102.786 209.157C94.6291 211.384 87.2118 214.608 80.6795 218.812C73.9863 223.17 68.0654 227.728 62.7558 232.632C61.3882 233.934 60.0689 235.221 58.7898 236.507C55.2099 240.1 51.9598 243.622 49.0315 247.086C48.9269 247.207 48.8143 247.328 48.7177 247.448C44.6632 252.424 40.9707 256.629 37.793 260.078C35.452 262.626 32.9903 264.379 30.4159 265.344C27.9864 266.469 25.4363 267.112 23.224 267.313C20.8508 267.498 18.6545 267.377 16.7801 266.959C14.7609 266.533 13.2163 265.979 12.1544 265.126C9.2824 262.924 7.3758 260.303 6.42652 257.578C5.48529 254.692 5.0026 251.99 5.16349 249.008C5.31634 246.186 5.94383 243.388 6.88507 240.607C7.97915 237.833 9.21805 235.381 10.4328 233.243C12.6934 229.271 15.9113 225.204 20.2393 221.031C24.7283 216.714 29.3943 211.931 34.567 206.705C39.7318 201.472 44.9367 195.619 50.1738 189.139C55.5719 182.668 60.0689 175.199 63.9867 166.911C64.5257 165.681 65.0647 164.451 65.1451 163.036C65.3865 161.476 65.4508 160.375 65.1773 159.571C64.9038 158.775 64.4291 158.743 63.7775 159.185C62.973 159.611 62.0881 161.3 60.6803 164.057C56.9475 171.879 52.4666 178.881 47.2375 185.2C41.8636 191.366 36.5058 197.211 31.1641 202.589C25.6696 207.951 20.6818 212.871 15.8389 217.807C11.1649 222.591 7.44016 227.422 4.81758 232.158C3.03969 235.84 1.7284 239.706 1.03655 243.758C0.183806 247.81 0.119439 251.741 0.537766 255.696C0.964137 259.491 2.018 263.173 3.55454 266.879C5.09109 270.424 7.12641 273.528 9.81335 276.349C14.1575 280.522 18.4212 283.118 22.4677 284.123C26.6591 285.136 30.609 285.04 34.3016 283.818C37.978 282.765 41.397 280.747 44.5425 277.925C47.8489 275.111 50.5439 271.799 53.1021 268.318C53.9468 267.225 54.7593 266.188 55.5719 265.159C58.6932 261.211 61.6376 257.706 64.5578 254.619C64.9762 254.185 65.3784 253.791 65.7887 253.373Z" fill="#E2BE7F"/>
<path d="M149.309 236.531C148.899 236.507 149.181 235.076 149.744 232.407C150.299 229.746 151.079 226.892 152.085 223.628C153.09 220.372 154.08 217.526 155.053 214.881C156.228 212.252 157.137 210.854 157.764 210.886C158.384 210.918 160.009 211.416 162.47 211.971C164.916 212.727 167.563 213.699 170.185 214.873C172.824 216.055 175.237 217.229 177.249 218.579C179.236 220.139 180.201 221.433 180.129 222.679C180.04 224.327 179.726 226.385 178.946 229.247C178.174 231.892 177.208 234.537 176.227 237.182C175.044 239.811 174.095 242.038 172.953 244.048C171.81 245.856 170.942 246.636 170.137 246.178C167.506 244.996 164.079 243.356 160.033 241.274C156.212 239.385 152.567 237.737 149.309 236.531Z" fill="#E2BE7F"/>
<path d="M86.3671 331.474C85.9569 331.45 86.2384 330.019 86.8015 327.35C87.3566 324.689 88.137 321.835 89.1426 318.571C90.1482 315.316 91.1377 312.47 92.1111 309.825C93.2856 307.196 94.1947 305.797 94.8222 305.829C95.4416 305.861 97.0666 306.36 99.5283 306.915C101.974 307.67 104.621 308.643 107.243 309.817C109.882 310.999 112.295 312.172 114.307 313.523C116.294 315.082 117.259 316.377 117.187 317.623C117.098 319.271 116.784 321.329 116.004 324.191C115.232 326.836 114.266 329.481 113.285 332.126C112.102 334.754 111.153 336.981 110.011 338.991C108.868 340.8 107.999 341.58 107.195 341.122C104.564 339.94 101.137 338.3 97.0908 336.218C93.2695 334.336 89.6253 332.68 86.3671 331.474Z" fill="#E2BE7F"/>
<path d="M326.414 151.628C325.385 153.148 324.5 154.989 323.599 156.982C322.698 158.984 321.966 160.986 321.386 162.851C320.968 164.716 320.582 165.954 320.558 166.421C320.534 166.895 321.604 167.578 323.599 168.479C325.602 169.218 327.766 169.966 330.252 170.73C332.729 171.493 334.901 172.088 336.929 172.514C338.948 172.94 340.042 173.157 340.058 172.844C340.983 170.376 342.238 167.61 343.654 164.692C345.239 161.629 346.478 159.024 347.379 157.023C347.725 156.42 347.13 155.752 345.762 154.892C344.233 154.024 342.544 153.3 340.541 152.4C338.538 151.66 336.527 150.921 334.507 150.342C332.335 149.755 330.775 149.506 329.52 149.442C328.578 149.377 327.597 150.117 326.414 151.628Z" fill="#E2BE7F"/>
<path d="M314.307 128.507C313.277 130.027 312.392 131.868 311.491 133.862C310.59 135.863 309.858 137.865 309.279 139.73C308.861 141.595 308.475 142.833 308.45 143.3C308.426 143.774 309.496 144.457 311.491 145.358C313.494 146.097 315.658 146.845 318.144 147.609C320.622 148.372 322.794 148.967 324.821 149.393C326.841 149.819 327.935 150.037 327.951 149.723C328.876 147.255 330.131 144.489 331.547 141.571C333.132 138.508 334.371 135.904 335.272 133.902C335.617 133.299 335.022 132.632 333.655 131.771C332.126 130.903 330.437 130.18 328.434 129.279C326.43 128.54 324.419 127.8 322.4 127.221C320.228 126.634 318.667 126.385 317.412 126.321C316.471 126.264 315.49 127.004 314.307 128.507Z" fill="#E2BE7F"/>
<path d="M89.7942 92.0494C113.993 87.8127 136.904 79.9262 155.874 64.0166C171.271 51.1055 184.851 36.1606 196.628 19.7364C202.702 14.0848 206.097 5.7561 215.871 0C211.173 16.1589 200.788 26.1999 194.432 38.4437C180.491 56.4757 168.029 75.5207 155.472 95.7877C155.134 85.0553 160.66 77.4582 164.626 69.3225C165.125 68.3417 165.624 67.377 166.123 66.4042C164.626 65.6485 164.53 67.2001 163.838 67.7789C144.482 81.2366 124.427 93.3116 101.322 99.3652C85.9569 101.906 70.6397 103.256 53.5929 97.2669C66.9552 95.2651 78.6201 95.2089 89.7942 92.0494Z" fill="#E2BE7F"/>
<path d="M252.354 34.5366C251.333 33.2423 250.512 32.149 249.257 31.4817C248.219 30.8145 247.165 30.5733 246.313 30.5492C245.46 30.525 244.816 30.935 244.366 31.7711C244.133 32.3982 244.1 33.4513 244.704 34.7537C245.508 36.257 246.715 38.8376 248.3 42.4874C250.118 45.9282 251.494 49.57 252.66 53.4208C253.408 56.8375 254.164 60.2542 254.486 63.8719C255.017 67.4895 254.711 70.8741 253.561 74.0254C253.103 75.2796 252.242 75.8986 251.164 76.2925C250.102 76.4774 249.273 75.6011 248.477 73.8807C248.083 72.6025 247.704 71.3162 247.318 70.0299C246.932 68.5346 246.546 67.2564 245.951 65.9621C245.355 64.4507 244.535 63.3734 243.513 62.0711C242.701 60.7687 241.245 59.6754 239.571 58.775C239.145 58.9679 238.92 59.394 238.493 59.595C237.632 59.9889 236.78 60.1818 236.144 60.1658C232.958 60.0773 230.867 59.1689 229.443 57.0063C228.22 55.0608 227.641 53.1395 227.906 51.2342C228.63 48.2837 229.733 46.8367 231.438 46.4588C232.926 46.29 234.624 46.3383 235.895 46.7965C238.405 47.93 240.488 49.2565 242.138 51.0091C244.004 52.7616 245.436 54.4981 246.659 56.2265C248.091 58.1801 249.289 60.5436 250.295 62.6981C250.359 60.5838 249.989 58.4534 249.209 56.2989C248.429 53.9434 247.423 51.7969 246.425 49.6504C245.42 47.5039 244.414 45.5584 243.199 43.621C241.985 41.6755 241.18 39.9631 240.384 38.2347C239.99 36.9564 239.62 35.2441 239.467 33.1217C239.314 31.2084 239.579 29.0941 240.062 27.1968C240.537 25.3076 241.22 23.6274 242.323 22.1723C243.207 20.9262 244.712 20.1222 246.417 20.1705C249.386 20.2589 251.679 21.8025 253.722 24.6162C255.556 27.2129 256.312 30.4205 255.991 34.2311C255.958 35.5013 255.524 35.9194 254.462 35.6702C253.392 35.63 252.765 35.1798 252.354 34.5366Z" fill="#E2BE7F"/>
<path d="M235.114 88.3755C236.482 87.6439 238.638 86.5506 241.381 85.0874C244.31 83.8253 247.246 82.3702 250.761 80.7302C254.076 79.2831 257.6 77.6511 261.308 76.0192C264.816 74.3872 268.146 72.9401 271.083 71.477C274.204 70.2148 276.738 68.9366 278.886 68.0442C281.042 66.9428 282.216 66.4042 282.603 66.2274C283.584 65.6726 284.171 65.5038 284.348 65.6968C284.533 65.8977 284.525 66.2836 284.308 67.2403C283.89 68.5748 283.471 69.7164 283.061 70.4801C282.659 71.2358 282.45 71.6217 282.249 71.8066C282.056 71.9915 280.873 72.7311 278.532 73.8245C276.376 74.9258 273.641 76.196 270.511 77.6431C267.189 79.2831 263.673 80.9151 259.756 82.74C256.047 84.3639 252.33 86.1888 248.622 87.8208C245.098 89.6457 241.776 91.2857 239.032 92.7489C236.096 94.204 234.141 95.3053 232.958 96.2379C233.192 94.8953 233.409 93.7457 233.642 92.5961C233.868 91.6394 234.077 90.6828 234.294 89.919C234.519 89.1312 234.728 88.5604 235.114 88.3755Z" fill="#E2BE7F"/>
<path d="M350.355 97.4116C341.86 107.822 339.583 129.89 350.307 127.736C356.912 126.281 354.217 105.716 354.072 110.628C354.024 112.268 353.018 118.796 349.696 120.34C348.851 121.135 346.422 120.243 345.665 117.767C343.405 111.151 349.35 103.939 350.355 97.4116Z" fill="#E2BE7F"/>
<path d="M193.346 280.361C184.851 290.772 182.574 312.839 193.298 310.685C199.903 309.23 197.208 288.665 197.063 293.577C197.015 295.217 196.009 301.745 192.686 303.289C191.842 304.085 189.412 303.192 188.656 300.716C186.395 294.1 192.341 286.889 193.346 280.361Z" fill="#E2BE7F"/>
<path d="M125.4 109.245C120.316 114.841 119.125 127.921 124.91 126.441C129.849 125.766 127.717 114.23 127.645 116.682C127.621 117.502 126.687 121.57 125.022 122.341C124.177 123.137 123.381 122.293 122.609 120.637C121.072 117.325 124.467 113.321 125.4 109.245Z" fill="#E2BE7F"/>
<path d="M237.013 260.351C231.929 265.947 230.738 279.026 236.522 277.547C241.462 276.872 239.33 265.336 239.258 267.788C239.233 268.608 238.3 272.675 236.635 273.447C235.79 274.243 234.994 273.399 234.222 271.743C232.685 268.423 236.08 264.419 237.013 260.351Z" fill="#E2BE7F"/>
<path d="M164.168 98.4085C159.084 104.004 157.893 117.084 163.677 115.604C168.617 114.929 166.485 103.393 166.412 105.845C166.388 106.665 165.455 110.733 163.79 111.504C162.945 112.3 162.149 111.456 161.376 109.8C159.832 106.488 163.227 102.484 164.168 98.4085Z" fill="#E2BE7F"/>
<path d="M227.247 145.141C222.162 150.736 220.972 163.816 226.756 162.337C231.695 161.661 229.564 150.125 229.491 152.577C229.467 153.397 228.534 157.465 226.869 158.237C226.024 159.032 225.228 158.188 224.455 156.532C222.911 153.212 226.306 149.209 227.247 145.141Z" fill="#E2BE7F"/>
<path d="M263.038 90.6828C257.953 96.2781 256.763 109.358 262.547 107.879C267.486 107.203 265.355 95.6671 265.282 98.1191C265.258 98.9391 264.325 103.007 262.66 103.779C261.815 104.575 261.019 103.73 260.246 102.074C258.702 98.7622 262.097 94.7587 263.038 90.6828Z" fill="#E2BE7F"/>
<path d="M306.359 162.57C301.274 168.165 300.084 181.245 305.868 179.766C310.807 179.09 308.676 167.554 308.603 170.006C308.579 170.826 307.646 174.894 305.981 175.666C305.136 176.462 304.34 175.617 303.567 173.961C302.031 170.641 305.426 166.646 306.359 162.57Z" fill="#E2BE7F"/>
<path d="M24.1652 229.979C15.6861 239.57 13.4174 261.637 23.3205 259.467C30.7458 258.036 28.0267 238.291 27.906 242.383C27.8578 244.023 26.0316 250.527 23.5297 252.095C21.8403 253.687 19.4349 251.974 18.6787 249.498C16.394 243.694 22.3391 236.483 24.1652 229.979Z" fill="#E2BE7F"/>
<path d="M96.761 260.954C102.682 254.563 105.586 239.071 98.9813 240.526C93.2213 241.186 94.4602 255.15 94.5567 251.878C94.5808 251.058 96.3587 246.194 98.024 245.422C98.8687 244.626 100.486 245.495 101.258 247.151C101.934 252.087 97.6941 256.886 96.761 260.954Z" fill="#E2BE7F"/>
<path d="M277.671 217.044C283.592 210.653 286.496 195.161 279.891 196.616C274.131 197.275 275.37 211.239 275.467 207.967C275.491 207.147 277.269 202.284 278.934 201.512C279.779 200.716 281.396 201.584 282.168 203.24C282.852 208.168 278.612 212.968 277.671 217.044Z" fill="#E2BE7F"/>
<path d="M129.23 234.087C121.571 243.702 119.278 266.59 129.181 264.411C136.631 262.168 133.912 242.416 132.946 247.303C132.922 248.123 131.916 254.651 129.39 257.039C127.725 257.811 125.32 256.106 124.564 253.622C122.279 247.826 128.224 240.615 129.23 234.087Z" fill="#E2BE7F"/>
<path d="M281.726 98.312C302.546 87.4269 309.166 85.1598 324.451 66.7419C325.224 68.406 326.841 69.2662 328.458 70.1344C332.697 65.335 331.056 65.2868 327.074 61.0822C331.78 39.9068 316.913 43.5808 314.854 58.2765C317.243 60.8009 319.633 63.3332 321.225 65.0134C309.384 77.7878 295.168 87.2178 281.726 98.312Z" fill="#E2BE7F"/>
<path d="M151.449 210.146C160.137 193.183 160.459 181.719 144.418 168.969C144.321 172.249 144.233 175.521 144.136 178.801C156.107 190.611 153.509 195.45 151.449 210.146Z" fill="#E2BE7F"/>
<path d="M88.5875 193.231C90.2286 193.28 91.0733 192.484 91.025 194.124C91.0009 194.944 73.3588 210.017 70.7764 214.037C84.8145 210.339 97.3643 201.681 95.3531 186.052C94.6291 182.756 93.0604 180.248 88.9173 181.768C82.2643 184.855 80.583 186.446 73.1899 187.057C73.0692 191.149 72.9807 194.429 72.0395 198.497C81.846 199.599 81.8943 197.959 88.5875 193.231Z" fill="#E2BE7F"/>
<path d="M9.32263 206.705C21.6954 197.42 51.461 180.063 49.5705 158.036C49.2889 154.772 47.3743 151.644 44.4379 146.138C43.4806 144.578 43.3439 142.946 45.0413 143.621C46.8192 145.117 47.0283 147.56 49.4739 147.351C50.9703 145.575 51.0346 146.395 50.8255 143.943C49.0959 133.403 33.119 138.886 43.2875 151.99C46.0147 155.045 48.0018 158.984 46.5054 160.761C46.5778 161.581 45.6205 160.013 44.7276 159.266C42.7405 155.326 40.8983 153.011 38.2354 150.776C36.4576 149.281 35.5726 148.541 34.02 149.49C31.6388 150.519 31.9203 153.783 33.0144 156.974C34.9291 160.102 39.1445 161.38 40.4317 157.159C42.2739 159.467 46.7146 163.197 45.2183 164.974C35.4117 184.734 21.3415 193.344 9.32263 206.705Z" fill="#E2BE7F"/>
<path d="M254.285 240.076C256.594 235.775 256.715 231.41 255.878 222.647C255.942 220.46 257.093 218.314 258.122 220.525C260.246 222.768 259.056 226.016 262.306 227.197C264.518 226.168 264.494 227.262 264.582 223.99C269.321 211.03 247.576 207.131 251.325 229.07C252.29 233.468 253.199 240.044 249.86 242.134C248.766 242.102 248.831 239.923 248.895 237.737C249.048 232.278 248.083 227.881 245.991 224.544C244.993 221.24 243.964 219.029 241.743 220.058C238.469 219.962 237.278 223.21 237.158 227.575C237.005 233.034 240.15 237.488 244.647 233.251C245.548 239.827 246.176 256.227 254.285 240.076Z" fill="#E2BE7F"/>
<path d="M198.012 117.108C199.372 111.199 197.409 106.769 194.577 97.4197C193.596 95.2008 193.716 92.4996 195.808 94.22C199.5 96.5595 198.76 100.869 201.463 100.989C204.295 98.4085 203.684 100.008 204.424 95.6993C204.07 79.9504 179.928 85.3447 191.979 106.52C193.941 110.95 196.894 117.598 194.062 120.179C194.062 120.179 193.571 119.069 192.59 116.859C190.128 111.32 188.165 106.89 183.491 102.332C182.51 100.113 180.418 98.3924 178.198 99.3732C174.875 100.844 174.618 106.263 176.098 109.583C177.45 115.612 182.743 118.571 185.696 113.281C189.758 119.431 196.025 136.547 198.012 117.108Z" fill="#E2BE7F"/>
<path d="M233.916 108.916C233.819 112.188 232.983 112.984 236.209 114.72C236.16 116.36 235.316 117.156 234.479 117.952C234.479 117.952 233.658 117.928 232.017 117.88C231.245 116.215 229.652 114.535 228.856 113.691C227.987 115.307 227.987 115.307 228.759 116.971C229.556 117.815 229.556 117.815 230.352 118.659C230.231 122.751 228.55 124.343 224.455 124.231C222.862 122.542 222.09 120.886 220.497 119.198C220.425 121.658 221.157 124.954 221.905 127.438C226.611 134.947 230.851 130.155 232.653 124.464C242.516 123.917 238.694 113.972 233.916 108.916Z" fill="#E2BE7F"/>
<path d="M83.2941 126.932C83.1975 130.204 82.3609 131 85.5868 132.736C85.5386 134.376 84.6938 135.172 83.8572 135.968C83.8572 135.968 83.0366 135.944 81.3955 135.896C80.6232 134.231 79.0304 132.551 78.2339 131.707C77.3651 133.323 77.3651 133.323 78.1374 134.987C78.9338 135.831 78.9338 135.831 79.7303 136.675C79.6096 140.767 77.9282 142.359 73.8334 142.247C72.2406 140.558 71.4683 138.902 69.8754 137.214C69.803 139.674 70.5351 142.97 71.2833 145.454C75.9895 152.963 80.229 148.171 82.031 142.48C91.8859 141.933 88.0726 131.988 83.2941 126.932Z" fill="#E2BE7F"/>
<path d="M239.024 195.796C237.383 195.748 234.857 198.135 234.785 200.595C234.712 203.055 237.126 204.76 238.767 204.808C242.049 204.904 243.73 203.313 243.803 200.853C243.867 198.393 242.298 195.884 239.024 195.796Z" fill="#E2BE7F"/>
<path d="M198.937 264.733C197.296 264.684 194.77 267.072 194.698 269.532C194.625 271.992 197.039 273.696 198.68 273.745C201.962 273.841 203.643 272.249 203.716 269.789C203.788 267.329 202.211 264.829 198.937 264.733Z" fill="#E2BE7F"/>
<path d="M112.319 260.866C110.678 260.817 108.152 263.205 108.08 265.665C108.007 268.125 110.421 269.829 112.062 269.878C115.344 269.974 117.026 268.382 117.098 265.922C117.162 263.462 115.594 260.962 112.319 260.866Z" fill="#E2BE7F"/>
<path d="M33.5614 216.36C31.9203 216.312 29.3942 218.7 29.3218 221.16C29.2494 223.62 31.6629 225.324 33.304 225.372C36.5863 225.469 38.2676 223.877 38.34 221.417C38.4124 218.957 36.8437 216.457 33.5614 216.36Z" fill="#E2BE7F"/>
<path d="M185.84 160.102C184.199 160.053 181.673 162.441 181.601 164.901C181.528 167.361 183.942 169.065 185.583 169.114C188.865 169.21 190.547 167.618 190.619 165.158C190.691 162.698 189.123 160.19 185.84 160.102Z" fill="#E2BE7F"/>
<path d="M106.584 125.444C104.942 125.396 102.416 127.784 102.344 130.244C102.272 132.704 104.685 134.408 106.326 134.456C109.608 134.553 111.29 132.961 111.362 130.501C111.435 128.041 109.866 125.541 106.584 125.444Z" fill="#E2BE7F"/>
<path d="M63.681 139.996C62.0399 139.947 61.1952 140.743 61.155 142.383C61.1308 143.203 61.9272 144.047 63.5684 144.088C64.3889 144.112 66.0542 143.34 66.0703 142.52C66.1186 140.88 64.5016 140.02 63.681 139.996Z" fill="#E2BE7F"/>
<path d="M101.902 163.229C100.26 163.181 99.4157 163.977 99.3755 165.617C99.3514 166.437 100.148 167.281 101.789 167.321C102.609 167.345 104.275 166.573 104.291 165.753C104.331 164.121 102.714 163.253 101.902 163.229Z" fill="#E2BE7F"/>
<path d="M142.061 219.037C140.42 218.989 139.575 219.785 139.535 221.425C139.511 222.245 140.307 223.089 141.948 223.129C142.769 223.154 144.434 222.382 144.45 221.562C144.498 219.93 142.881 219.062 142.061 219.037Z" fill="#E2BE7F"/>
<path d="M37.2379 239.554C35.5968 239.505 34.7521 240.301 34.7119 241.941C34.6877 242.761 35.4842 243.605 37.1253 243.646C37.9459 243.67 39.6111 242.898 39.6272 242.078C39.6755 240.446 38.0585 239.578 37.2379 239.554Z" fill="#E2BE7F"/>
<path d="M63.5764 217.775C61.9353 217.727 61.0906 218.523 61.0503 220.163C61.0262 220.983 61.8226 221.827 63.4638 221.867C64.2843 221.891 65.9496 221.12 65.9657 220.3C66.0139 218.66 64.397 217.799 63.5764 217.775Z" fill="#E2BE7F"/>
<path d="M154.321 256.701C152.68 256.653 151.835 257.449 151.795 259.089C151.771 259.909 152.567 260.753 154.208 260.793C155.029 260.817 156.694 260.046 156.71 259.226C156.759 257.586 155.142 256.725 154.321 256.701Z" fill="#E2BE7F"/>
<path d="M191.906 223.459C190.265 223.411 189.42 224.207 189.38 225.847C189.356 226.667 190.152 227.511 191.794 227.551C192.614 227.575 194.279 226.803 194.295 225.983C194.336 224.351 192.727 223.483 191.906 223.459Z" fill="#E2BE7F"/>
<path d="M207.215 297.621C205.574 297.573 204.729 298.369 204.689 300.009C204.665 300.829 205.462 301.673 207.103 301.713C207.923 301.737 209.589 300.966 209.605 300.146C209.653 298.514 208.036 297.645 207.215 297.621Z" fill="#E2BE7F"/>
<path d="M174.562 296.89C172.921 296.841 172.076 297.637 172.036 299.277C172.011 300.097 172.808 300.941 174.449 300.982C175.27 301.006 176.935 300.234 176.951 299.414C176.999 297.782 175.382 296.914 174.562 296.89Z" fill="#E2BE7F"/>
<path d="M252.829 257.875C251.188 257.827 250.343 258.623 250.303 260.263C250.279 261.083 251.075 261.927 252.716 261.967C253.537 261.991 255.202 261.219 255.218 260.399C255.258 258.759 253.641 257.899 252.829 257.875Z" fill="#E2BE7F"/>
<path d="M293.793 184.42C292.152 184.372 291.307 185.168 291.267 186.808C291.243 187.628 292.039 188.472 293.68 188.512C294.501 188.537 296.166 187.765 296.182 186.945C296.23 185.305 294.613 184.445 293.793 184.42Z" fill="#E2BE7F"/>
<path d="M329.19 111.352C327.549 111.303 326.704 112.099 326.664 113.739C326.639 114.559 327.436 115.403 329.077 115.444C329.898 115.468 331.563 114.696 331.579 113.876C331.627 112.244 330.01 111.376 329.19 111.352Z" fill="#E2BE7F"/>
<path d="M245.717 101.552C244.076 101.504 243.232 102.299 243.191 103.939C243.167 104.759 243.964 105.604 245.605 105.644C246.425 105.668 248.091 104.896 248.107 104.076C248.155 102.444 246.538 101.576 245.717 101.552Z" fill="#E2BE7F"/>
<path d="M283.407 82.4586C281.766 82.4104 280.921 83.2063 280.881 84.8463C280.857 85.6663 281.653 86.5104 283.294 86.5506C284.115 86.5747 285.78 85.8029 285.796 84.9829C285.845 83.3429 284.228 82.4827 283.407 82.4586Z" fill="#E2BE7F"/>
<path d="M181.496 75.7539C179.855 75.7056 179.01 76.5015 178.97 78.1415C178.946 78.9615 179.742 79.8056 181.384 79.8458C182.204 79.87 183.869 79.0982 183.886 78.2782C183.934 76.6382 182.317 75.778 181.496 75.7539Z" fill="#E2BE7F"/>
<path d="M279.916 52.2632C278.274 52.215 277.43 53.0108 277.39 54.6508C277.365 55.4708 278.162 56.315 279.803 56.3552C280.624 56.3793 282.289 55.6075 282.305 54.7875C282.345 53.1475 280.736 52.2873 279.916 52.2632Z" fill="#E2BE7F"/>
<path d="M346.156 137.206C344.515 137.158 343.67 137.954 343.63 139.594C343.606 140.414 344.402 141.258 346.043 141.298C346.864 141.322 348.529 140.55 348.545 139.73C348.594 138.09 346.977 137.222 346.156 137.206Z" fill="#E2BE7F"/>
<path d="M53.2469 286.728C51.6058 286.68 50.7611 287.476 50.7209 289.116C50.6967 289.936 51.4932 290.78 53.1343 290.82C53.9549 290.844 55.6201 290.072 55.6362 289.252C55.6845 287.62 54.0675 286.752 53.2469 286.728Z" fill="#E2BE7F"/>
<path d="M171.738 134.247C170.097 134.199 169.252 134.995 169.212 136.635C169.188 137.455 169.984 138.299 171.625 138.339C172.446 138.364 174.111 137.592 174.127 136.772C174.176 135.14 172.559 134.272 171.738 134.247Z" fill="#E2BE7F"/>
<path d="M214.053 76.3166C212.412 76.2684 211.567 77.0643 211.527 78.7043C211.503 79.5243 212.3 80.3684 213.941 80.4086C214.761 80.4327 216.427 79.6609 216.443 78.8409C216.491 77.2009 214.874 76.3407 214.053 76.3166Z" fill="#E2BE7F"/>
<path d="M81.0978 253.751C79.4567 253.703 78.612 254.499 78.5718 256.139C78.5477 256.959 79.3441 257.803 80.9852 257.843C81.8058 257.867 83.471 257.095 83.4871 256.275C83.5273 254.643 81.9184 253.775 81.0978 253.751Z" fill="#E2BE7F"/>
</svg>
