<svg width="30" height="30" viewBox="0 0 30 30" fill="none" xmlns="http://www.w3.org/2000/svg">
<g clip-path="url(#clip0_21_17)">
<path d="M15 30C23.2843 30 30 23.2843 30 15C30 6.71573 23.2843 0 15 0C6.71573 0 0 6.71573 0 15C0 23.2843 6.71573 30 15 30Z" fill="#F0F0F0"/>
<path d="M14.9999 29.999C21.4494 29.999 26.9475 25.9283 29.0669 20.2163H0.932922C3.05232 25.9283 8.55046 29.999 14.9999 29.999Z" fill="black"/>
<path d="M14.9999 0.000823975C8.55046 0.000823975 3.05232 4.07145 0.932922 9.78346H29.067C26.9475 4.07145 21.4494 0.000823975 14.9999 0.000823975Z" fill="#D80027"/>
</g>
<defs>
<clipPath id="clip0_21_17">
<rect width="30" height="30" fill="white"/>
</clipPath>
</defs>
</svg>
