<svg width="30" height="30" viewBox="0 0 30 30" fill="none" xmlns="http://www.w3.org/2000/svg">
<g clip-path="url(#clip0_21_18)">
<path d="M15 30C23.2843 30 30 23.2843 30 15C30 6.71573 23.2843 0 15 0C6.71573 0 0 6.71573 0 15C0 23.2843 6.71573 30 15 30Z" fill="#F0F0F0"/>
<path d="M14.3474 15H29.9996C29.9996 13.6461 29.8191 12.3346 29.4828 11.0869H14.3474V15Z" fill="#D80027"/>
<path d="M14.3474 7.17317H27.798C26.8797 5.67481 25.7057 4.35041 24.3368 3.2601H14.3474V7.17317Z" fill="#D80027"/>
<path d="M14.9996 30C18.5299 30 21.7746 28.7799 24.3369 26.7392H5.66238C8.22469 28.7799 11.4694 30 14.9996 30Z" fill="#D80027"/>
<path d="M2.20131 22.8249H27.7981C28.5353 21.622 29.107 20.3072 29.483 18.9118H0.516449C0.892445 20.3072 1.46414 21.622 2.20131 22.8249Z" fill="#D80027"/>
<path d="M6.94828 2.34246H8.31521L7.04373 3.26619L7.52941 4.76086L6.25799 3.83713L4.98656 4.76086L5.40609 3.46963C4.2866 4.40215 3.30539 5.49469 2.4968 6.71203H2.93479L2.12543 7.30002C1.99934 7.51037 1.8784 7.72406 1.7625 7.94092L2.14898 9.13043L1.42793 8.60654C1.24869 8.98629 1.08475 9.37459 0.937383 9.77098L1.36318 11.0816H2.93479L1.6633 12.0053L2.14898 13.5L0.877559 12.5763L0.115957 13.1296C0.0397266 13.7424 0 14.3665 0 15H15C15 6.71578 15 5.73914 15 0C12.0368 0 9.27451 0.85957 6.94828 2.34246ZM7.52941 13.5L6.25799 12.5763L4.98656 13.5L5.47225 12.0053L4.20076 11.0816H5.77236L6.25799 9.58693L6.74361 11.0816H8.31521L7.04373 12.0053L7.52941 13.5ZM7.04373 7.63576L7.52941 9.13043L6.25799 8.2067L4.98656 9.13043L5.47225 7.63576L4.20076 6.71203H5.77236L6.25799 5.21736L6.74361 6.71203H8.31521L7.04373 7.63576ZM12.9098 13.5L11.6384 12.5763L10.367 13.5L10.8527 12.0053L9.58119 11.0816H11.1528L11.6384 9.58693L12.124 11.0816H13.6956L12.4242 12.0053L12.9098 13.5ZM12.4242 7.63576L12.9098 9.13043L11.6384 8.2067L10.367 9.13043L10.8527 7.63576L9.58119 6.71203H11.1528L11.6384 5.21736L12.124 6.71203H13.6956L12.4242 7.63576ZM12.4242 3.26619L12.9098 4.76086L11.6384 3.83713L10.367 4.76086L10.8527 3.26619L9.58119 2.34246H11.1528L11.6384 0.847793L12.124 2.34246H13.6956L12.4242 3.26619Z" fill="#0052B4"/>
</g>
<defs>
<clipPath id="clip0_21_18">
<rect width="30" height="30" fill="white"/>
</clipPath>
</defs>
</svg>
