<svg width="173" height="61" viewBox="0 0 173 61" fill="none" xmlns="http://www.w3.org/2000/svg">
<path d="M15.6 6.96V60H7.76V18.32C4.72 20.72 2.64 24.16 2.64 28.08C2.64 28.96 2.72 29.84 2.96 30.64C1.44 27.92 0.24 23.92 0.24 20.8C0.24 9.36 13.04 9.92 13.6 -4.76837e-06C15.36 2.32 15.6 4.16 15.6 6.96ZM22.2738 51.04H31.4738L32.1938 50.56C29.3938 46.72 17.9537 43.28 17.9537 38.16C17.9537 35.52 19.1538 32.88 20.5938 30.72C24.1138 25.2 27.4738 24.08 33.8738 24.08C36.0338 24.08 42.1938 24.4 42.1938 27.44C42.1938 28.56 39.3138 34.88 38.1938 34.88C38.1138 34.88 38.0338 34.8 37.9538 34.8C38.9138 32.08 33.2338 31.76 31.6338 31.76C29.2338 31.76 26.6738 32 24.3538 32.72C29.8738 36.72 35.7138 40.32 40.9938 44.56C42.0338 45.36 42.6738 46.16 42.6738 47.52C42.6738 48.8 42.0338 49.92 41.5538 51.04H51.7938L54.2738 60H17.7937L22.2738 51.04ZM68.3038 60H53.5038C50.5438 60 48.2238 57.6 48.2238 54.64C48.2238 41.36 48.1438 28 48.1438 14.72C48.1438 14.24 48.1438 12.24 48.2238 11.84C48.9438 9.28 54.4638 6.24 56.4638 4.16C56.9438 4.16 57.0238 4.56 57.0238 4.88L57.1038 48.24C57.1038 49.28 58.0638 51.04 59.2638 51.04H66.3838L68.3038 60ZM98.6881 51.04L101.168 60H85.4081C83.0881 60 81.8081 58.32 81.1681 56.32C78.6881 58.48 75.4881 59.92 72.1281 59.92C66.4481 59.92 61.6481 55.92 61.6481 50.08C61.6481 43.04 70.6081 38.72 75.5681 35.12C77.9681 33.36 86.2881 27.04 86.2881 24.16V23.92C88.5281 25.6 89.4881 28.56 89.4881 31.2C89.4881 34.56 87.4881 36.4 85.0881 38.4C83.1681 40 69.8881 49.84 69.8881 50.96C69.8881 52.72 75.7281 53.36 77.0881 53.36C78.1281 53.36 80.6881 53.2 80.6881 51.68V45.12C80.6881 43.76 87.9681 37.28 89.4081 36.8C89.4881 37.04 89.5681 37.36 89.5681 37.6C89.5681 42.08 89.4081 46.56 89.3281 51.04H98.6881ZM154.284 51.04L156.364 60C152.204 60 148.044 60.08 143.884 60.08C137.964 60.08 136.204 57.92 136.204 52.16C136.204 48.88 136.764 33.68 134.924 31.84C134.524 31.44 134.124 31.2 133.564 31.2C130.604 31.2 128.444 37.44 127.804 39.76C126.684 43.84 126.444 48.08 126.444 52.32C126.444 54.88 126.524 57.44 126.524 60H117.324C117.484 56.08 117.564 52.08 117.564 48.16C117.564 45.84 117.564 32.88 115.484 32.24C115.244 32.16 114.924 32.16 114.684 32.16C111.244 32.16 109.964 37.52 109.244 40.08C107.404 46.64 106.124 53.36 104.844 60H96.7638V26.72C96.7638 25.84 96.2038 24.72 95.5638 24.16H105.644V38.96C108.204 33.84 114.444 24.4 120.844 24.4C125.964 24.4 126.604 30.64 126.604 34.48C129.164 30.4 133.884 24.32 139.164 24.32C143.084 24.32 145.164 28.88 145.164 32.32C145.164 37.28 145.084 42.24 145.084 47.2C145.084 50.64 147.324 51.2 149.884 51.2C151.404 51.2 152.924 51.04 154.284 51.04ZM170.203 51.04L172.682 60H156.842C153.243 60 152.123 56 152.123 53.04V26.72C152.123 25.76 151.643 24.8 151.002 24.16H161.003V46.96C161.003 48.24 161.403 51.04 163.163 51.04H170.203ZM161.163 14.8L156.443 19.52L151.803 14.8L156.443 10.08L161.163 14.8Z" fill="url(#paint0_linear_11_23)"/>
<defs>
<linearGradient id="paint0_linear_11_23" x1="83" y1="-6" x2="83" y2="90" gradientUnits="userSpaceOnUse">
<stop stop-color="#C0A37C"/>
<stop offset="1" stop-color="#FFD482"/>
</linearGradient>
</defs>
</svg>
