<svg width="174" height="155" viewBox="0 0 174 155" fill="none" xmlns="http://www.w3.org/2000/svg">
<path d="M173.716 68.0111C173.716 115.967 134.835 154.862 86.8648 154.862C38.8948 154.862 2.19661e-05 115.967 2.19661e-05 68.0111C-0.00343619 63.1566 0.40143 58.3104 1.21034 53.5237C4.63572 73.7623 15.117 92.1341 30.796 105.382C46.4749 118.63 66.3384 125.897 86.8648 125.897C129.902 125.897 165.623 94.5926 172.506 53.5192C173.317 58.307 173.722 63.155 173.716 68.0111Z" fill="url(#paint0_linear_11_8)"/>
<path d="M86.8648 138.621C41.6032 138.621 4.47594 104.038 0.392812 59.8722C0.141612 62.5532 3.05176e-05 65.2616 3.05176e-05 68.0065C3.05176e-05 115.963 38.8857 154.858 86.8648 154.858C134.844 154.858 173.716 115.967 173.716 68.0111C173.716 65.2707 173.579 62.5578 173.328 59.8768C169.24 104.038 132.099 138.621 86.8648 138.621Z" fill="url(#paint1_linear_11_8)"/>
<path d="M160.923 47.3853V70.8291C154.795 83.3758 145.703 94.2409 134.433 102.485V47.3853H160.923Z" fill="url(#paint2_linear_11_8)"/>
<path d="M12.7929 47.3853V70.8291C18.921 83.3758 28.0131 94.2409 39.283 102.485V47.3853H12.7929Z" fill="url(#paint3_linear_11_8)"/>
<path d="M86.8602 70.9981H47.2301V74.7707C47.2313 75.7498 47.6211 76.6885 48.3139 77.3804C49.0067 78.0723 49.9458 78.461 50.925 78.461H122.795C123.28 78.461 123.76 78.3656 124.208 78.1801C124.655 77.9946 125.062 77.7228 125.405 77.3801C125.748 77.0374 126.019 76.6306 126.205 76.1829C126.39 75.7352 126.486 75.2553 126.486 74.7707V70.9981H86.8602Z" fill="url(#paint4_linear_11_8)"/>
<path d="M13.7657 44.2613H38.333C38.8177 44.2613 39.2975 44.1659 39.7453 43.9804C40.193 43.795 40.5998 43.5231 40.9425 43.1805C41.2852 42.8378 41.557 42.431 41.7425 41.9832C41.9279 41.5355 42.0234 41.0556 42.0234 40.571V38.2417H10.0891V40.571C10.0903 41.547 10.4776 42.4829 11.1665 43.1743C11.8553 43.8657 12.7898 44.2565 13.7657 44.2613Z" fill="url(#paint5_linear_11_8)"/>
<path d="M39.9544 38.2463C42.6034 36.9218 45.7777 30.966 41.9412 26.4627C38.1047 21.9594 26.0471 20.2375 26.0471 16.9263C26.0471 20.2375 13.9987 21.9503 10.1576 26.4627C6.31653 30.9752 9.49535 36.9218 12.1444 38.2463H39.9544Z" fill="url(#paint6_linear_11_8)"/>
<path d="M29.3675 0C30.2015 1.48073 30.5281 3.19362 30.2977 4.87735C30.0673 6.56108 29.2923 8.1232 28.0912 9.32539C26.89 10.5276 25.3286 11.3038 23.645 11.5357C21.9615 11.7676 20.2483 11.4424 18.7669 10.6098C19.3561 11.6584 20.1801 12.5563 21.1744 13.2333C22.1686 13.9103 23.3061 14.3479 24.4977 14.5118C25.6893 14.6758 26.9027 14.5616 28.0428 14.1783C29.1829 13.795 30.2188 13.153 31.0693 12.3024C31.9198 11.4519 32.5619 10.416 32.9452 9.27588C33.3285 8.13576 33.4427 6.92238 33.2787 5.73077C33.1148 4.53917 32.6772 3.4017 32.0002 2.40747C31.3232 1.41323 30.4253 0.589228 29.3766 0H29.3675Z" fill="url(#paint7_linear_11_8)"/>
<path d="M86.8602 70.9981H54.2865C48.0842 67.8969 40.6395 53.9348 49.6325 43.389C58.6254 32.8432 86.8602 28.8103 86.8602 21.0551C86.8602 28.8194 115.086 32.8432 124.083 43.389C133.081 53.9348 125.636 67.8969 119.429 70.9981H86.8602Z" fill="url(#paint8_linear_11_8)"/>
<path d="M83.5398 0.826675C82.6826 2.30724 82.3384 4.02948 82.5607 5.7258C82.7829 7.42212 83.5592 8.99753 84.769 10.2073C85.9787 11.417 87.5541 12.1933 89.2504 12.4156C90.9468 12.6378 92.669 12.2936 94.1496 11.4364C93.5603 12.485 92.7363 13.383 91.7421 14.06C90.7479 14.737 89.6104 15.1746 88.4188 15.3385C87.2272 15.5025 86.0138 15.3883 84.8737 15.005C83.7336 14.6217 82.6977 13.9796 81.8471 13.1291C80.9966 12.2786 80.3545 11.2427 79.9712 10.1026C79.5879 8.96243 79.4738 7.74905 79.6377 6.55745C79.8017 5.36584 80.2393 4.22837 80.9162 3.23414C81.5932 2.23991 82.4912 1.4159 83.5398 0.826675Z" fill="url(#paint9_linear_11_8)"/>
<path d="M86.8648 81.8865H50.1075V109.153C58.1915 113.331 66.9292 116.099 75.9445 117.338V106.33C73.8664 105.289 71.3772 100.612 74.387 97.0772C77.3968 93.5421 86.8602 92.1948 86.8602 89.596C86.8602 92.1948 96.319 93.5421 99.3334 97.0772C102.348 100.612 99.8541 105.298 97.7714 106.33V117.338C106.787 116.104 115.527 113.341 123.613 109.167V81.9002L86.8648 81.8865Z" fill="url(#paint10_linear_11_8)"/>
<path d="M159.955 44.2613H135.387C134.408 44.2613 133.469 43.8727 132.776 43.1807C132.083 42.4888 131.694 41.5501 131.692 40.571V38.2417H163.663V40.571C163.663 41.0571 163.567 41.5385 163.381 41.9875C163.194 42.4364 162.921 42.844 162.576 43.1869C162.231 43.5299 161.822 43.8013 161.373 43.9857C160.923 44.1701 160.441 44.2637 159.955 44.2613Z" fill="url(#paint11_linear_11_8)"/>
<path d="M133.766 38.2463C131.117 36.9218 127.938 30.966 131.779 26.4627C135.62 21.9594 147.669 20.2375 147.669 16.9263C147.669 20.2375 159.722 21.9503 163.558 26.4627C167.395 30.9752 164.221 36.9218 161.576 38.2463H133.766Z" fill="url(#paint12_linear_11_8)"/>
<path d="M144.367 0C143.53 1.48159 143.202 3.19642 143.432 4.88226C143.662 6.56811 144.438 8.13218 145.641 9.3353C146.844 10.5384 148.408 11.3144 150.094 11.5445C151.78 11.7747 153.495 11.4464 154.976 10.6098C154.387 11.6584 153.563 12.5563 152.569 13.2333C151.575 13.9103 150.437 14.3479 149.246 14.5118C148.054 14.6758 146.841 14.5616 145.7 14.1783C144.56 13.795 143.524 13.153 142.674 12.3024C141.823 11.4519 141.181 10.416 140.798 9.27588C140.415 8.13576 140.301 6.92238 140.465 5.73077C140.628 4.53917 141.066 3.4017 141.743 2.40747C142.42 1.41323 143.318 0.589228 144.367 0Z" fill="url(#paint13_linear_11_8)"/>
<defs>
<linearGradient id="paint0_linear_11_8" x1="86.858" y1="53.5192" x2="86.858" y2="154.862" gradientUnits="userSpaceOnUse">
<stop stop-color="#C0A37C"/>
<stop offset="1" stop-color="#FFD482"/>
</linearGradient>
<linearGradient id="paint1_linear_11_8" x1="86.8579" y1="59.8722" x2="86.8579" y2="154.858" gradientUnits="userSpaceOnUse">
<stop stop-color="#C0A37C"/>
<stop offset="1" stop-color="#FFD482"/>
</linearGradient>
<linearGradient id="paint2_linear_11_8" x1="147.678" y1="47.3853" x2="147.678" y2="102.485" gradientUnits="userSpaceOnUse">
<stop stop-color="#C0A37C"/>
<stop offset="1" stop-color="#FFD482"/>
</linearGradient>
<linearGradient id="paint3_linear_11_8" x1="26.038" y1="47.3853" x2="26.038" y2="102.485" gradientUnits="userSpaceOnUse">
<stop stop-color="#C0A37C"/>
<stop offset="1" stop-color="#FFD482"/>
</linearGradient>
<linearGradient id="paint4_linear_11_8" x1="86.8579" y1="70.9981" x2="86.8579" y2="78.461" gradientUnits="userSpaceOnUse">
<stop stop-color="#C0A37C"/>
<stop offset="1" stop-color="#FFD482"/>
</linearGradient>
<linearGradient id="paint5_linear_11_8" x1="26.0562" y1="38.2417" x2="26.0562" y2="44.2613" gradientUnits="userSpaceOnUse">
<stop stop-color="#C0A37C"/>
<stop offset="1" stop-color="#FFD482"/>
</linearGradient>
<linearGradient id="paint6_linear_11_8" x1="26.0484" y1="16.9263" x2="26.0484" y2="38.2463" gradientUnits="userSpaceOnUse">
<stop stop-color="#C0A37C"/>
<stop offset="1" stop-color="#FFD482"/>
</linearGradient>
<linearGradient id="paint7_linear_11_8" x1="26.0592" y1="0" x2="26.0592" y2="14.5846" gradientUnits="userSpaceOnUse">
<stop stop-color="#C0A37C"/>
<stop offset="1" stop-color="#FFD482"/>
</linearGradient>
<linearGradient id="paint8_linear_11_8" x1="86.8595" y1="21.0551" x2="86.8595" y2="70.9981" gradientUnits="userSpaceOnUse">
<stop stop-color="#C0A37C"/>
<stop offset="1" stop-color="#FFD482"/>
</linearGradient>
<linearGradient id="paint9_linear_11_8" x1="86.8573" y1="0.826675" x2="86.8573" y2="15.4112" gradientUnits="userSpaceOnUse">
<stop stop-color="#C0A37C"/>
<stop offset="1" stop-color="#FFD482"/>
</linearGradient>
<linearGradient id="paint10_linear_11_8" x1="86.8602" y1="81.8865" x2="86.8602" y2="117.338" gradientUnits="userSpaceOnUse">
<stop stop-color="#C0A37C"/>
<stop offset="1" stop-color="#FFD482"/>
</linearGradient>
<linearGradient id="paint11_linear_11_8" x1="147.678" y1="38.2417" x2="147.678" y2="44.2614" gradientUnits="userSpaceOnUse">
<stop stop-color="#C0A37C"/>
<stop offset="1" stop-color="#FFD482"/>
</linearGradient>
<linearGradient id="paint12_linear_11_8" x1="147.668" y1="16.9263" x2="147.668" y2="38.2463" gradientUnits="userSpaceOnUse">
<stop stop-color="#C0A37C"/>
<stop offset="1" stop-color="#FFD482"/>
</linearGradient>
<linearGradient id="paint13_linear_11_8" x1="147.684" y1="0" x2="147.684" y2="14.5846" gradientUnits="userSpaceOnUse">
<stop stop-color="#C0A37C"/>
<stop offset="1" stop-color="#FFD482"/>
</linearGradient>
</defs>
</svg>
