<svg width="31" height="32" viewBox="0 0 31 32" fill="none" xmlns="http://www.w3.org/2000/svg">
<path d="M10.0104 2.66663V6.66663H9.04166C8.70583 6.66663 8.38291 6.67996 8.07291 6.73329V2.66663C8.07291 2.11996 8.51208 1.66663 9.04166 1.66663C9.57125 1.66663 10.0104 2.11996 10.0104 2.66663Z" fill="#202020"/>
<path d="M21.9583 6.66663H9.04167C8.70584 6.66663 8.38292 6.67996 8.07292 6.73329C4.74042 7.13329 2.58334 9.67996 2.58334 13.3333V22.6666C2.58334 26.6666 5.16667 29.3333 9.04167 29.3333H21.9583C25.8333 29.3333 28.4167 26.6666 28.4167 22.6666V13.3333C28.4167 9.33329 25.8333 6.66663 21.9583 6.66663ZM10.1783 21.3333C8.39584 21.3333 6.94917 19.84 6.94917 18C6.94917 16.16 8.39584 14.6666 10.1783 14.6666C11.9608 14.6666 13.4075 16.16 13.4075 18C13.4075 19.84 11.9608 21.3333 10.1783 21.3333ZM18.5742 21.6666H17.9283C17.3988 21.6666 16.9596 21.2133 16.9596 20.6666C16.9596 20.12 17.3988 19.6666 17.9283 19.6666H18.5742C19.1038 19.6666 19.5429 20.12 19.5429 20.6666C19.5429 21.2133 19.1038 21.6666 18.5742 21.6666ZM23.095 21.6666H22.4492C21.9196 21.6666 21.4804 21.2133 21.4804 20.6666C21.4804 20.12 21.9196 19.6666 22.4492 19.6666H23.095C23.6246 19.6666 24.0638 20.12 24.0638 20.6666C24.0638 21.2133 23.6246 21.6666 23.095 21.6666ZM23.095 16.3333H17.9283C17.3988 16.3333 16.9596 15.88 16.9596 15.3333C16.9596 14.7866 17.3988 14.3333 17.9283 14.3333H23.095C23.6246 14.3333 24.0638 14.7866 24.0638 15.3333C24.0638 15.88 23.6246 16.3333 23.095 16.3333Z" fill="#202020"/>
</svg>
